<svg xmlns="http://www.w3.org/2000/svg" width="18" height="18" viewBox="0 0 18 18" fill="none">
  <g clip-path="url(#clip0_71_1046)">
    <path d="M13.226 16.5736H14.3532C14.9236 16.5736 15.3921 16.139 15.46 15.5822L16.5804 4.39209H13.1853V1.64209H11.8476V4.39209H8.47295L8.67666 5.98098C9.83777 6.30012 10.9242 6.87728 11.576 7.51555C12.5538 8.47974 13.226 9.47789 13.226 11.1075V16.5736ZM1.64209 15.8946V15.2223H11.8476V15.8946C11.8476 16.268 11.5421 16.5736 11.1618 16.5736H2.32789C1.94765 16.5736 1.64209 16.268 1.64209 15.8946ZM11.8476 11.1415C11.8476 5.70937 1.64209 5.70937 1.64209 11.1415H11.8476ZM1.65567 12.5063H11.8409V13.8643H1.65567V12.5063Z" fill="white"/>
  </g>
  <defs>
    <clipPath id="clip0_71_1046">
      <rect width="16.2963" height="16.2963" fill="white" transform="translate(0.962891 0.962891)"/>
    </clipPath>
  </defs>
</svg>